# xmcd CD database file
# Generated: Wed Mar 10 23:32:35 2004 by WSPse's MP3c
#
# Track frame offsets:
#       150
#       13682
#       28567
#       43137
#       56057
#       71554
#       85337
#       99341
#       117310
#       133425
#       149092
#
# Disc length: 2195 seconds
#
# Revision: 3
# Processed by: cddbd v1.5PL3 Copyright (c) Steve Scherf et al.
# Submitted via: MP3c 0.27
#   WSPse pp3c-0.27 - ENGLISH (Mar  8 2004)
#
DISCID=a408910b
DTITLE=Billy Joe Royal - Tell It Like It Is
DYEAR=1900
DGENRE=
TTITLE0=Tell It Like It Is
TTITLE1=Kiss And Say Goodbye
TTITLE2=Slip Away
TTITLE3=He Don't Know
TTITLE4=Cross My Heart And Hope To Try
TTITLE5=Love Has No Right
TTITLE6=The Truth Is I Lied
TTITLE7=Till I Can't Take It Anymore
TTITLE8=I Was Losing You
TTITLE9=What's The Matter Baby
TTITLE10=Love Is A Full Time Job
EXTD=
EXTT0=
EXTT1=
EXTT2=
EXTT3=
EXTT4=
EXTT5=
EXTT6=
EXTT7=
EXTT8=
EXTT9=
EXTT10=
PLAYORDER=
